<?xml version="1.0" encoding="UTF-8"?><svg version="1.1" width="24px" height="24px" viewBox="0 0 24.0 24.0" xmlns="http://www.w3.org/2000/svg" xmlns:xlink="http://www.w3.org/1999/xlink"><defs><clipPath id="i0"><path d="M10.675,0 C16.5706397,0 21.35,4.7793603 21.35,10.675 C21.35,16.5706397 16.5706397,21.35 10.675,21.35 C4.7793603,21.35 0,16.5706397 0,10.675 C0,4.7793603 4.7793603,0 10.675,0 Z M10.675,1.35 C5.52494471,1.35 1.35,5.52494471 1.35,10.675 C1.35,15.8250553 5.52494471,20 10.675,20 C15.8250553,20 20,15.8250553 20,10.675 C20,5.52494471 15.8250553,1.35 10.675,1.35 Z"></path></clipPath><clipPath id="i1"><path d="M5.31043707,0 C8.23935409,0 10.6215232,2.381957 10.6215232,5.31034437 L10.6215232,9.94652316 C10.6215232,10.3193154 10.3193154,10.6215232 9.94652316,10.6215232 L5.3103907,10.6215232 C2.38189775,10.6215232 0,8.23929486 0,5.31034437 C0,2.3820721 2.38205396,0 5.31043707,0 Z M5.31043707,1.35 C3.12764067,1.35 1.35,3.12765421 1.35,5.31034437 C1.35,7.49375238 3.12752411,9.27152316 5.3103907,9.27152316 L9.27133773,9.27096273 L9.27152316,5.31034437 C9.27152316,3.19371305 7.59990515,1.4581035 5.50776867,1.35485869 Z"></path></clipPath></defs><g transform="translate(1.3249999999999993 1.3249999999999993)"><g clip-path="url(#i0)"><polygon points="0,0 21.35,0 21.35,21.35 0,21.35 0,0" stroke="none" fill="#000000"></polygon></g></g><g transform="translate(6.225662265624998 6.460037265624998)"><g clip-path="url(#i1)"><polygon points="0,0 10.6215232,0 10.6215232,10.6215232 0,10.6215232 0,0" stroke="none" fill="#000000"></polygon></g></g></svg>