<?xml version="1.0" encoding="UTF-8"?><svg version="1.1" width="24px" height="24px" viewBox="0 0 24.0 24.0" xmlns="http://www.w3.org/2000/svg" xmlns:xlink="http://www.w3.org/1999/xlink"><defs><clipPath id="i0"><path d="M1.0625,0 L1.17827108,0.00623460534 C1.71061466,0.0639201275 2.125,0.514817623 2.125,1.0625 C2.125,1.64930255 1.64930255,2.125 1.0625,2.125 C0.475697453,2.125 0,1.64930255 0,1.0625 C0,0.514817623 0.414385337,0.0639201275 0.946728919,0.00623460534 L1.0625,0 Z"></path></clipPath><clipPath id="i1"><path d="M0.75,0 C1.12969577,0 1.44349096,0.282153882 1.49315338,0.648229443 L1.5,0.75 L1.5,3.25 C1.5,3.66421356 1.16421356,4 0.75,4 C0.370304234,4 0.0565090391,3.71784612 0.006846616,3.35177056 L0,3.25 L0,0.75 C0,0.335786438 0.335786438,0 0.75,0 Z"></path></clipPath><clipPath id="i2"><path d="M5.75052835,0 C6.5948484,0 7.36665083,0.477192586 7.74383286,1.23223778 L11.2653794,8.2744976 C11.6111709,8.96538033 11.5744243,9.78607667 11.1682719,10.4432912 C10.7621195,11.1005057 10.0445251,11.5004444 9.27219501,11.5001799 L2.22911856,11.5001799 C1.4565316,11.5004444 0.738937201,11.1005057 0.332784793,10.4432912 C-0.0733676424,9.78607667 -0.110114224,8.96538033 0.235557161,8.27473778 L3.75708697,1.2325116 C4.13440586,0.477192586 4.90620829,0 5.75052835,0 Z M5.75052835,1.5 C5.47456136,1.5 5.22229684,1.65597095 5.09883286,1.90312167 L1.57704604,8.94586184 C1.46402368,9.17167766 1.47603434,9.43992321 1.60878573,9.65473454 C1.74153713,9.86954588 1.97608376,10.0002663 2.22886168,10.0001799 L9.2724519,10.0001799 C9.52497293,10.0002663 9.75951956,9.86954588 9.89227096,9.65473454 C10.0250224,9.43992321 10.037033,9.17167766 9.92389049,8.94562167 L6.40208697,1.90284784 C6.27875985,1.65597095 6.02649533,1.5 5.75052835,1.5 Z"></path></clipPath><clipPath id="i3"><path d="M10.8575,0 C11.3286982,0 11.7827607,0.166391023 12.1413294,0.466681318 L12.2711634,0.585503247 L14.6646666,2.97900653 C14.9977731,3.31232647 15.2011759,3.7510691 15.2422641,4.21675718 L15.25,4.3925 L15.25,7 C15.25,7.41421356 14.9142136,7.75 14.5,7.75 C14.1203042,7.75 13.806509,7.46784612 13.7568466,7.10177056 L13.75,7 L13.75,4.3925 C13.75,4.28661594 13.7163197,4.18412702 13.6549562,4.09944464 L13.6038366,4.03949675 L11.2106732,1.64633332 C11.1356588,1.57136701 11.0393439,1.52269347 10.9360526,1.50622271 L10.8575,1.5 L2,1.5 C1.75454011,1.5 1.55039163,1.67687516 1.50805567,1.91012437 L1.5,2 L1.5,15.75 C1.5,15.9954599 1.67687516,16.1996084 1.91012437,16.2419443 L2,16.25 L6.375,16.25 C6.78921356,16.25 7.125,16.5857864 7.125,17 C7.125,17.3796958 6.84284612,17.693491 6.47677056,17.7431534 L6.375,17.75 L2,17.75 C0.945638205,17.75 0.0818348781,16.9341222 0.00548573643,15.8992623 L0,15.75 L0,2 C0,0.945638205 0.815877791,0.0818348781 1.85073766,0.00548573643 L2,0 L10.8575,0 Z"></path></clipPath><clipPath id="i4"><path d="M1.0625,0 L1.17827108,0.00623460534 C1.71061466,0.0639201275 2.125,0.514817623 2.125,1.0625 C2.125,1.64930255 1.64930255,2.125 1.0625,2.125 C0.475697453,2.125 0,1.64930255 0,1.0625 C0,0.514817623 0.414385337,0.0639201275 0.946728919,0.00623460534 L1.0625,0 Z"></path></clipPath><clipPath id="i5"><path d="M6.49681651,0 C6.90084182,0.00464727795 7.27960711,0.186594984 7.54354586,0.505296716 L7.63696546,0.631141018 L8.97529879,2.77280768 C9.19480697,3.12407544 9.08799473,3.58678075 8.73672697,3.80628893 C8.41739265,4.00584182 8.00596117,3.93570841 7.76887483,3.65739502 L7.70324573,3.56771711 L6.47493893,1.60159573 L4.91659416,3.82348044 C4.68865116,4.1484132 4.25260486,4.23503375 3.92122511,4.0386876 L3.83367884,3.9780894 L2.93293893,3.25659573 L1.94993893,5.27759573 L5.75093893,5.27859573 C6.13063469,5.27859573 6.44442989,5.56074961 6.49409231,5.92682517 L6.50093893,6.02859573 C6.50093893,6.4082915 6.21878504,6.72208669 5.85270948,6.77174911 L5.75093893,6.77859573 L0.750938926,6.77859573 C0.231564225,6.77859573 -0.119757529,6.26884883 0.0380759283,5.79465819 L0.0765324232,5.70045572 L1.69069909,2.38295572 L1.74118669,2.29489241 C1.95513887,1.97416261 2.29391679,1.75799189 2.6749318,1.69907923 C3.00831994,1.64753066 3.34724385,1.72052691 3.62819336,1.90103975 L3.74486568,1.98493539 L4.14693893,2.30759573 L5.35422017,0.587731058 C5.58544897,0.256374082 5.9490321,0.0457218136 6.34640872,0.00655148362 L6.49681651,0 Z"></path></clipPath></defs><g transform="translate(16.68749999999999 18.49999999999999)"><g clip-path="url(#i0)"><polygon points="0,0 2.125,0 2.125,2.125 0,2.125 0,0" stroke="none" fill="#000000"></polygon></g></g><g transform="translate(16.99999999999999 14.125)"><g clip-path="url(#i1)"><polygon points="0,0 1.5,0 1.5,4 0,4 0,0" stroke="none" fill="#000000"></polygon></g></g><g transform="translate(11.999471654612211 10.99982027820938)"><g clip-path="url(#i2)"><polygon points="-5.55111512e-17,0 11.5010373,0 11.5010373,11.5001801 -5.55111512e-17,11.5001801 -5.55111512e-17,0" stroke="none" fill="#000000"></polygon></g></g><g transform="translate(3.2499999999999876 2.2499999999999964)"><g clip-path="url(#i3)"><polygon points="0,0 15.25,0 15.25,17.75 0,17.75 0,0" stroke="none" fill="#000000"></polygon></g></g><g transform="translate(6.687499999999988 6.3124999999999964)"><g clip-path="url(#i4)"><polygon points="0,0 2.125,0 2.125,2.125 0,2.125 0,0" stroke="none" fill="#000000"></polygon></g></g><g transform="translate(5.749061073871398 8.221404269125623)"><g clip-path="url(#i5)"><polygon points="0,0 9.0893727,0 9.0893727,6.77859573 0,6.77859573 0,0" stroke="none" fill="#000000"></polygon></g></g></svg>