<?xml version="1.0" encoding="UTF-8"?><svg version="1.1" width="24px" height="24px" viewBox="0 0 24.0 24.0" xmlns="http://www.w3.org/2000/svg" xmlns:xlink="http://www.w3.org/1999/xlink"><defs><clipPath id="i0"><path d="M10.2830817,0.0119245602 C10.8860383,-0.0541777337 11.4864134,0.156929123 11.9152848,0.585834314 L16.7846249,5.45517454 C17.2134226,5.8842529 17.4243073,6.48475545 17.3579444,7.08772446 C17.2915815,7.69069347 16.9551438,8.23095762 16.4434572,8.55640253 L11.434288,11.7430049 L11.4495937,11.8338097 C11.6639054,13.2940993 11.4123917,14.7885187 10.7256438,16.1034276 L10.5718329,16.3823683 C10.2581607,16.9169871 9.71433324,17.2759541 9.09945335,17.3542495 C8.48457345,17.4325449 7.86814075,17.221319 7.43129126,16.7831612 L0.587917436,9.93978614 C0.148966772,9.502145 -0.0622591244,8.88571229 0.0160362779,8.2708324 C0.0943316803,7.65595251 0.45329869,7.11212501 0.990555735,6.79691208 C2.3684148,5.99602 3.97191655,5.69105109 5.53648039,5.92068952 L5.62628801,5.93500491 L8.81397234,0.925855222 C9.10717031,0.465360744 9.57419565,0.147015348 10.1042241,0.0397626418 Z M10.5365759,1.50127306 L10.4465477,1.50299091 C10.2958085,1.51951649 10.1607142,1.60355845 10.0793874,1.73128967 L6.61688741,7.17295633 C6.44488336,7.44327798 6.12015179,7.57447963 5.80864061,7.49951315 C4.42788548,7.16722861 2.97217842,7.38006665 1.74699193,8.09220932 C1.61333724,8.17062737 1.52359549,8.30658425 1.50402164,8.46030422 C1.48444779,8.61402419 1.53725426,8.76813237 1.64778477,8.87833431 L8.49274309,15.7232938 C8.60215338,15.8330315 8.75626155,15.885838 8.90998153,15.8662641 C9.0637015,15.8466903 9.19965837,15.7569485 9.27653569,15.6259321 C9.9902191,14.3981073 10.2030571,12.9424003 9.8707726,11.5616451 C9.7958106,11.2501526 9.92699194,10.9254388 10.1972855,10.7534263 L15.6382844,7.29082093 C15.7662475,7.20943336 15.8503569,7.07436733 15.8669476,6.92362507 C15.8835383,6.77288282 15.8308172,6.62275718 15.7237913,6.51566115 L10.8546037,1.64647358 C10.7473806,1.53924205 10.5972868,1.48646534 10.4465477,1.50299091 Z"></path></clipPath><clipPath id="i1"><path d="M7.94949675,0.219669914 C8.21576332,0.485936477 8.23996937,0.902600159 8.02211491,1.19621165 L7.94949675,1.28033009 L1.28033009,7.94949675 C0.987436867,8.24238997 0.512563133,8.24238997 0.219669914,7.94949675 C-0.0465966484,7.68323019 -0.0708026996,7.26656651 0.147051761,6.97295501 L0.219669914,6.88883658 L6.88883658,0.219669914 C7.1817298,-0.0732233047 7.65660353,-0.0732233047 7.94949675,0.219669914 Z"></path></clipPath></defs><g transform="translate(4.131711985184548 2.2499950908647524)"><g clip-path="url(#i0)"><polygon points="0,0 17.3699618,0 17.3699618,17.3702878 0,17.3702878 0,0" stroke="none" fill="#000000"></polygon></g></g><g transform="translate(1.250000000000015 14.331159490474239)"><g clip-path="url(#i1)"><polygon points="0,0 8.16916667,0 8.16916667,8.16916667 0,8.16916667 0,0" stroke="none" fill="#000000"></polygon></g></g></svg>