<?xml version="1.0" encoding="UTF-8"?><svg version="1.1" width="24px" height="24px" viewBox="0 0 24.0 24.0" xmlns="http://www.w3.org/2000/svg" xmlns:xlink="http://www.w3.org/1999/xlink"><defs><clipPath id="i0"><path d="M6.08333333,0 C9.44300078,0 12.1666667,2.72261487 12.1666667,6.08127529 C12.1666667,9.4399357 9.44300078,12.1625506 6.08333333,12.1625506 C2.72366589,12.1625506 0,9.4399357 0,6.08127529 C0,2.72261487 2.72366589,0 6.08333333,0 Z M6.08333333,1.5 C3.55196344,1.5 1.5,3.55117163 1.5,6.08127529 C1.5,8.61137895 3.55196344,10.6625506 6.08333333,10.6625506 C8.61470322,10.6625506 10.6666667,8.61137895 10.6666667,6.08127529 C10.6666667,3.55117163 8.61470322,1.5 6.08333333,1.5 Z"></path></clipPath><clipPath id="i1"><path d="M0.75,0 C1.12969577,0 1.44349096,0.282153882 1.49315338,0.648229443 L1.5,0.75 L1.49933333,2.88695294 L2.75,2.88777411 C3.12969577,2.88777411 3.44349096,3.169928 3.49315338,3.53600356 L3.5,3.63777411 C3.5,4.01746988 3.21784612,4.33126508 2.85177056,4.3809275 L2.75,4.38777411 L0.75,4.38777411 C0.370304234,4.38777411 0.0565090391,4.10562023 0.006846616,3.73954467 L0,3.63777411 L0,0.75 C0,0.335786438 0.335786438,0 0.75,0 Z"></path></clipPath><clipPath id="i2"><path d="M7.92498587,0.575235929 C8.02160026,0.978024379 7.77339713,1.38287037 7.37060868,1.47948475 C4.70821935,2.11809567 2.83199775,4.49916219 2.83456176,7.23655668 C2.83456176,9.60585576 2.57534773,11.5423011 2.13942765,13.0790526 C2.09438497,13.2378419 2.04905216,13.3874001 2.0038202,13.5278794 L1.90522842,13.8162343 L15.4492284,13.8162343 L15.3500633,13.5926845 C15.2667292,13.3926849 15.1926788,13.1886935 15.1282151,12.9813514 L15.0387475,12.6679052 C14.9344056,12.2670491 15.1747778,11.8575051 15.5756339,11.7531632 C15.9764901,11.6488212 16.386034,11.8891934 16.490376,12.2900496 C16.6623946,12.9509027 16.9566898,13.5737197 17.358051,14.1263036 C17.6969692,14.5929176 17.403178,15.2359872 16.8565845,15.3100279 L16.7512284,15.3170602 L0.751228423,15.3170602 C0.157574783,15.3170602 -0.200755315,14.6600742 0.120679845,14.1609709 C0.166730558,14.0894664 0.225033812,13.9798699 0.291636358,13.8303957 L0.39727049,13.5760527 L0.512388624,13.2605538 C0.532200594,13.2027999 0.552284192,13.142442 0.572577649,13.0794522 L0.696362529,12.669708 C1.06538912,11.3687764 1.29936464,9.72486429 1.33090719,7.70905973 L1.33456209,7.23725926 C1.33134803,3.80630013 3.68340372,0.821364319 7.02073705,0.0208587393 C7.4235255,-0.0757556443 7.82837149,0.172447478 7.92498587,0.575235929 Z"></path></clipPath><clipPath id="i3"><path d="M4.51182494,0.0290602766 C4.91009561,0.142873055 5.14069429,0.557998711 5.02688151,0.956269381 C4.70811668,2.07173889 3.68830512,2.84072961 2.52797089,2.84072961 C1.36763667,2.84072961 0.347825108,2.07173889 0.0290602766,0.956269381 C-0.0847525014,0.557998711 0.145846183,0.142873055 0.544116853,0.0290602766 C0.909198301,-0.0752681032 1.28844262,0.109804815 1.43677954,0.448144631 L1.47132596,0.544116853 C1.60605765,1.0155901 2.03724754,1.34072961 2.52797089,1.34072961 C2.97780064,1.34072961 3.37760573,1.0675221 3.54489381,0.65883307 L3.58461583,0.544116853 C3.69842861,0.145846183 4.11355427,-0.0847525014 4.51182494,0.0290602766 Z"></path></clipPath></defs><g transform="translate(11.58333333333336 1.25)"><g clip-path="url(#i0)"><polygon points="0,0 12.1666667,0 12.1666667,12.1625506 0,12.1625506 0,0" stroke="none" fill="#000000"></polygon></g></g><g transform="translate(16.91666666666663 4.582047055697759)"><g clip-path="url(#i1)"><polygon points="0,0 3.5,0 3.5,4.38777411 0,4.38777411 0,0" stroke="none" fill="#000000"></polygon></g></g><g transform="translate(2.2487715771319827 3.4267656648333427)"><g clip-path="url(#i2)"><polygon points="-1.11022302e-16,-3.46944695e-18 17.5025646,-3.46944695e-18 17.5025646,15.3170602 -1.11022302e-16,15.3170602 -1.11022302e-16,-3.46944695e-18" stroke="none" fill="#000000"></polygon></g></g><g transform="translate(8.472029105311556 19.90927039499679)"><g clip-path="url(#i3)"><polygon points="8.8817842e-16,8.91647867e-16 5.05594179,8.91647867e-16 5.05594179,2.84072961 8.8817842e-16,2.84072961 8.8817842e-16,8.91647867e-16" stroke="none" fill="#000000"></polygon></g></g></svg>