<?xml version="1.0" encoding="UTF-8"?><svg version="1.1" width="24px" height="24px" viewBox="0 0 24.0 24.0" xmlns="http://www.w3.org/2000/svg" xmlns:xlink="http://www.w3.org/1999/xlink"><defs><clipPath id="i0"><path d="M17.7104916,2.20437154 C20.7366745,4.6214692 22.1118738,8.5587969 21.2490436,12.335385 C21.1567861,12.7391936 20.7546451,12.9917558 20.3508364,12.8994984 C19.9470278,12.8072409 19.6944656,12.4050999 19.786723,12.0012912 C20.5212964,8.78608062 19.3505293,5.43406206 16.7743582,3.37640151 C14.1983188,1.31884618 10.6721561,0.919040162 7.70125585,2.34764429 C4.73023387,3.77630694 2.83942045,6.78112766 2.83618734,10.0785676 C2.836047,11.6754467 3.2841797,13.2402585 4.1295288,14.5947493 C4.24566789,14.7808373 4.27360528,15.0066749 4.20996199,15.2129222 L4.17049297,15.3141387 L2.33787601,19.1630071 L6.1848618,17.3312385 C6.38210984,17.2372623 6.60869675,17.2346735 6.80594597,17.3202673 L6.90185411,17.3703979 C7.12631425,17.5091744 7.34985642,17.6347845 7.57553802,17.748479 C7.94546047,17.9348396 8.09426677,18.3857961 7.9079062,18.7557185 C7.72154563,19.1256409 7.27058915,19.2744472 6.9006667,19.0880867 L6.63647693,18.9499465 L6.47087601,18.8560071 L1.07546196,21.4270878 C0.468245954,21.7163876 -0.164497472,21.1265919 0.0387876125,20.5188907 L0.0756582835,20.4277088 L2.64387601,15.0300071 L2.4844559,14.7391379 C1.78971743,13.4151553 1.39904489,11.9507446 1.34316504,10.4528703 L1.33618771,10.0777664 C1.33998579,6.20375632 3.56104768,2.6741152 7.05120824,0.9958166 C10.5414905,-0.682540519 14.684177,-0.212831334 17.7104916,2.20437154 Z"></path></clipPath><clipPath id="i1"><path d="M1.08332783,0 L1.20138209,0.0063587214 C1.74421603,0.0651923763 2.16665567,0.525058973 2.16665567,1.08348453 C2.16665567,1.68179763 1.6817122,2.16696906 1.08332783,2.16696906 C0.484943465,2.16696906 0,1.68179763 0,1.08348453 C0,0.525058973 0.422439641,0.0651923763 0.965273581,0.0063587214 L1.08332783,0 Z"></path></clipPath><clipPath id="i2"><path d="M0.75,0 C1.12969577,0 1.44349096,0.282153882 1.49315338,0.648229443 L1.5,0.75 L1.5,3.41787624 C1.5,3.8320898 1.16421356,4.16787624 0.75,4.16787624 C0.370304234,4.16787624 0.0565090391,3.88572236 0.006846616,3.5196468 L0,3.41787624 L0,0.75 C0,0.335786438 0.335786438,0 0.75,0 Z"></path></clipPath><clipPath id="i3"><path d="M6.08380755,0 C6.96554519,0 7.77149276,0.498538206 8.16535024,1.28733497 L11.9203853,8.80182635 C12.282129,9.52327351 12.2442682,10.3807188 11.8203386,11.0674546 C11.3963394,11.7543032 10.6467167,12.1722555 9.84019003,12.1716977 L2.32768168,12.1716977 C1.52085051,12.1719731 0.771495611,11.7541368 0.347415713,11.0675904 C-0.0765945823,10.3811567 -0.114954561,9.52402413 0.245914109,8.80267884 L4.00215982,1.28754525 C4.39612234,0.498538206 5.20206991,0 6.08380755,0 Z M6.08380755,1.5 C5.77059206,1.5 5.48421957,1.67714257 5.34403171,1.95790316 L1.58752916,9.47355065 C1.45912448,9.73022055 1.47277137,10.0351528 1.62358234,10.2793019 C1.77432362,10.5233382 2.04056899,10.6717952 2.32742507,10.6716975 L9.84070907,10.6716975 C10.1271859,10.6718956 10.3933417,10.5235003 10.5439499,10.2795258 C10.6946278,10.0354383 10.7080878,9.7306059 10.5790453,9.47324704 L6.82344662,1.95762939 C6.68339553,1.67714257 6.39702304,1.5 6.08380755,1.5 Z"></path></clipPath></defs><g transform="translate(0.7471239917394428 1.2499929461409973)"><g clip-path="url(#i0)"><polygon points="-2.22044605e-16,0 21.5029026,0 21.5029026,21.5028846 -2.22044605e-16,21.5028846 -2.22044605e-16,0" stroke="none" fill="#000000"></polygon></g></g><g transform="translate(15.0830969006021 18.58212338257816)"><g clip-path="url(#i1)"><polygon points="0,0 2.16665567,0 2.16665567,2.16696906 0,2.16696906 0,0" stroke="none" fill="#000000"></polygon></g></g><g transform="translate(15.416424735499831 13.91333996621994)"><g clip-path="url(#i2)"><polygon points="0,0 1.5,0 1.5,4.16787624 0,4.16787624 0,0" stroke="none" fill="#000000"></polygon></g></g><g transform="translate(10.082617186695721 10.57830287862344)"><g clip-path="url(#i3)"><polygon points="8.04911693e-16,0 12.1672577,0 12.1672577,12.1716982 8.04911693e-16,12.1716982 8.04911693e-16,0" stroke="none" fill="#000000"></polygon></g></g></svg>