<?xml version="1.0" encoding="UTF-8"?><svg version="1.1" width="24px" height="24px" viewBox="0 0 24.0 24.0" xmlns="http://www.w3.org/2000/svg" xmlns:xlink="http://www.w3.org/1999/xlink"><defs><clipPath id="i0"><path d="M13.5,0 C16.1833691,0 18.3815347,2.05728999 18.4953693,4.64841616 L18.5,4.85964723 L18.5,8.28435326 C18.5,9.03563486 17.916737,9.64382912 17.1812493,9.71278179 L17.0416667,9.71929447 L12.833,9.719 L12.8333333,20.065663 C12.8331281,20.5450992 12.5904596,20.9868925 12.1957731,21.2512226 L12.072897,21.3250579 C11.6604923,21.5461803 11.168106,21.55705 10.748735,21.3609273 L10.6118587,21.2878911 L6.416,18.75 L2.22071638,21.2856094 C1.82093678,21.5268047 1.33081709,21.5625804 0.903043811,21.3892196 L0.762971292,21.3236818 C0.339194936,21.0975339 0.0573554509,20.6803996 0.0078058355,20.2084389 L0,20.065342 L0,4.85964723 C0,2.24077788 2.12755061,0.114570271 4.78352437,0.00447822904 L5,0 L13.5,0 Z M13.5,1.5 L5,1.5 C3.12608979,1.5 1.6045171,2.91092314 1.50516104,4.67584922 L1.5,4.85964723 L1.499,19.968 L6.02875079,17.2316413 C6.2332862,17.1080334 6.48212505,17.0904232 6.69927882,17.1787941 L6.80486348,17.2318112 L11.333,19.97 L11.3333333,4.85964723 C11.3333333,3.73428097 12.2259253,2.82223715 13.3459256,2.74505634 L13.5,2.73976482 C13.9142136,2.73976482 14.25,3.07555126 14.25,3.48976482 C14.25,3.86946059 13.9678461,4.18325578 13.6017706,4.23291821 L13.5,4.23976482 C13.1602536,4.23976482 12.8872637,4.47387338 12.840437,4.76933944 L12.8333333,4.85964723 L12.833,8.219 L17,8.219 L17,4.85964723 C17,3.0715639 15.540891,1.60103799 13.6925521,1.50498968 L13.5,1.5 Z"></path></clipPath></defs><g transform="translate(4.25 1.25)"><g clip-path="url(#i0)"><polygon points="0,0 18.5,0 18.5,21.4999504 0,21.4999504 0,0" stroke="none" fill="#000000"></polygon></g></g></svg>