<?xml version="1.0" encoding="UTF-8"?><svg version="1.1" width="16px" height="16px" viewBox="0 0 16.0 16.0" xmlns="http://www.w3.org/2000/svg" xmlns:xlink="http://www.w3.org/1999/xlink"><g transform="translate(1.4400000000000146 1.439999999999995)"><g transform="translate(6.161458333333334 9.1146545)"><path d="M0.401041667,0.510416667 C0.280233333,0.510416667 0.182291667,0.412475 0.182291667,0.291666667 C0.182291667,0.170858333 0.280233333,0.0729166667 0.401041667,0.0729166667" stroke="#000000" stroke-width="1.5" fill="none" stroke-miterlimit="10"></path></g><g transform="translate(6.380208333333334 9.1146545)"><path d="M0.182291667,0.510416667 C0.3031,0.510416667 0.401041667,0.412475 0.401041667,0.291666667 C0.401041667,0.170858333 0.3031,0.0729166667 0.182291667,0.0729166667" stroke="#000000" stroke-width="1.5" fill="none" stroke-miterlimit="10"></path></g><g transform="translate(6.270833333333334 3.062571166666667)"><path d="M0.291666667,4.375 L0.291666667,0" stroke="#000000" stroke-width="1.5" fill="none" stroke-linecap="round" stroke-miterlimit="10"></path></g><path d="M0.3091375,7.30982117 C0.11118625,7.1116045 0,6.8429795 0,6.56286283 C0,6.28274617 0.11118625,6.01406283 0.3091375,5.8159045 L5.815775,0.3098095 C5.913775,0.211605333 6.03015,0.133688917 6.15825,0.0805268333 C6.28640833,0.02736475 6.423725,0 6.56244167,0 C6.70115833,0 6.83853333,0.02736475 6.96669167,0.0805268333 C7.09479167,0.133688917 7.21116667,0.211605333 7.30910833,0.3098095 L12.815775,5.8159045 C13.0137583,6.01406283 13.1249417,6.28274617 13.1249417,6.56286283 C13.1249417,6.8429795 13.0137583,7.1116045 12.815775,7.30982117 L7.30910833,12.8159045 C7.11106667,13.0138295 6.8425,13.1249545 6.56244167,13.1249545 C6.28244167,13.1249545 6.013875,13.0138295 5.815775,12.8159045 L0.3091375,7.30982117 Z" stroke="#000000" stroke-width="1.5" fill="none" stroke-linecap="round" stroke-linejoin="round"></path></g></svg>